#!OML:ASF F:\VICON\USERDATA\INSTALL\rory3\rory3.ASF
:FULLY-SPECIFIED
:DEGREES
52
root 0.33864890871500014 17.60051465347861 29.610683031540034 1.007713278197095 1.9735410021541375 2.5058162878042602
lfemur 8.794766286772717 -1.9984515469678517 -29.9456510915088
ltibia 22.295983187430934
lfoot -19.135614656119877 0.1229594723724543
ltoes -2.70141326224108
rfemur -42.68123020060567 -0.38411434032120173 18.21511479477713
rtibia 47.81093748059903
rfoot -3.271083406563139 -17.193274978450056
rtoes -2.8250612680955616
lowerback 12.463354817485783 -0.7727604379366626 -4.568839858353416
upperback -0.024638661148344954 -1.5484602704907346 0.6523341980950792
thorax -7.149589873439545 -0.5851605701878966 3.8703282034891577
lowerneck -18.685078115335973 -2.724966503254746 -2.8503068481241938
upperneck 16.182588033350775 -3.6090858316329255 2.8712486819984027
head 8.245676673880453 -1.5400878953580455 0.9381671140248432
lclavicle -3.0110729822996768e-15 1.593371939071373e-16
lhumerus -25.516261635674006 -14.180525088942645 89.70582531822589
lradius 69.84131892343551
lwrist 21.223202914845853
lhand -25.990754230446292 13.339549984567835
lfingers 7.125019999999999
lthumb 0.5546273151353116 43.316695857701
rclavicle -3.0110729822996768e-15 1.593371939071373e-16
rhumerus -44.850731455366116 -6.679195864040139 -88.54684800886548
rradius 67.11877265308017
rwrist -3.0260866005433646
rhand -16.69273655759069 31.288032214692997
rfingers 7.125019999999999
rthumb 9.53164238470539 1.4800867354345948
53
root 0.2677693237939959 17.444398827321464 30.240729872237537 1.9406043994124076 2.8793476627335925 2.8707929565268313
lfemur 14.516089769316107 -2.059116001245312 -30.160025687699992
ltibia 16.73760666164349
lfoot -19.328983816004275 -1.2137499822401745
ltoes -6.748015170360439
rfemur -42.156254538543536 2.6704079671540146 16.748640679290126
rtibia 30.24337006550193
rfoot -3.549037572675274 -19.544438230713972
rtoes -6.1424360455705305
lowerback 11.760549612428449 -1.186962878320253 -5.390720824599199
upperback -0.22891062378893345 -2.190497752951669 0.7244142641962374
thorax -6.941326671666299 -0.8694912949852216 4.504979616331488
lowerneck -18.859477090648706 -2.7253016945032438 -2.9023643328809614
upperneck 15.99856290780249 -3.6216990922842474 2.916336731737946
head 8.208025172889803 -1.530723625741072 0.9576469893296757
lclavicle -3.315972292773484e-15 -5.444337689240438e-17
lhumerus -21.821423364738763 -15.053083611880758 89.08990947807297
lradius 72.07408386200143
lwrist 22.104407234613255
lhand -26.3051583380945 13.015025166399873
lfingers 7.125019999999999
lthumb 0.2509836565030221 42.98893241091199
rclavicle -3.315972292773484e-15 -5.444337689240438e-17
rhumerus -46.381437754742834 -7.694523110427036 -87.7326896497072
rradius 66.12825349175145
rwrist -2.391049914659713
rhand -16.663054218401466 31.467044377328524
rfingers 7.125019999999999
rthumb 9.56027278724552 1.6658473456691132
54
root 0.18242916090125383 17.26040880181235 31.71334802933017 2.409330566508748 3.5736174869379216 2.8632648750118963
lfemur 19.184653682083475 -2.970139753428036 -29.7043882354954
ltibia 15.842409285735457
lfoot -18.38754412851391 -2.6058144113264854
ltoes -12.236169026785053
rfemur -40.911050037434094 4.107367149730498 16.90067038813556
rtibia 23.48679424108365
rfoot -3.098677922341759 -17.626582167226537
rtoes -8.424623514347706
lowerback 11.442592986419532 -1.4015000309555128 -5.485381716766575
upperback -0.28932159364167537 -2.4709230011223373 0.9792260906295956
thorax -6.7955934562329885 -1.0002736806017585 4.929792444690024
lowerneck -19.035021147859066 -2.6811220395107744 -2.9154569300592774
upperneck 15.997320159599086 -3.5518304392784263 2.860937226072819
head 8.225755865036556 -1.4954981982706044 0.9467998769341982
lclavicle -2.909155361857134e-15 2.307823242190742e-16
lhumerus -19.41169213474132 -14.935495877596644 88.83952738378767
lradius 73.7838067109462
lwrist 22.678857593388866
lhand -26.920098028564645 12.066319398374832
lfingers 7.125019999999999
lthumb -0.34286950672939026 42.036087625373575
rclavicle -2.909155361857134e-15 2.307823242190742e-16
rhumerus -47.610552917437275 -9.236319476973119 -86.35972711090592
rradius 64.8848380228278
rwrist -1.178799050556924
rhand -16.88808817446592 31.510025970801493
rfingers 7.125019999999999
rthumb 9.3431376043875 1.7138522000402467
55
root 0.09286261883054019 17.138171479418872 33.148205777591706 2.324607625202823 3.8885996032730805 2.280797998452137
lfemur 21.726463255367563 -4.330422239947384 -28.761799976106474
ltibia 19.419812714259578
lfoot -15.08807900275454 -4.582766270397978
ltoes -18.485450247100296
rfemur -40.24054840744685 3.8612853333804784 18.522605317332335
rtibia 26.397539671979313
rfoot -0.9127977006921687 -12.867144311841221
rtoes -7.880908190043405
lowerback 11.398879681425766 -1.511168796871345 -4.932081845950595
upperback -0.2522159010352991 -2.5317069118550335 1.4268997147452454
thorax -6.736297263977316 -1.0401870949421523 5.071815666608589
lowerneck -19.14543339705304 -2.5297560186039547 -2.89240985220581
upperneck 16.174585969868353 -3.2971155599503277 2.6141317313281665
head 8.277726078547536 -1.3990898581706501 0.8936241255212398
lclavicle -2.5637819478422284e-15 4.729361101661191e-16
lhumerus -18.840184206858137 -14.077616665474881 88.99249106656025
lradius 75.07459126234014
lwrist 22.901340009580125
lhand -27.665732317051724 10.98182299931327
lfingers 7.125019999999999
lthumb -1.0629409993037457 40.94500838346864
rclavicle -2.5637819478422284e-15 4.729361101661191e-16
rhumerus -49.01278882081253 -11.227113951466425 -84.62276039548057
rradius 63.3995312150633
rwrist 0.49411379679334866
rhand -17.193969378159295 31.47684379823265
rfingers 7.125019999999999
rthumb 9.047974521148182 1.6712241715330063
